<?xml version="1.0" standalone="no"?>
<!DOCTYPE svg PUBLIC "-//W3C//DTD SVG 20010904//EN"
 "http://www.w3.org/TR/2001/REC-SVG-20010904/DTD/svg10.dtd">
<svg version="1.0" xmlns="http://www.w3.org/2000/svg"
 width="175.000000pt" height="213.000000pt" viewBox="0 0 175.000000 213.000000"
 preserveAspectRatio="xMidYMid meet">

<g transform="translate(0.000000,213.000000) scale(0.100000,-0.100000)"
fill="#000000" stroke="none">
<path d="M616 2000 c-34 -95 -216 -627 -216 -632 0 -5 -15 -29 -34 -55 -44
-62 -81 -137 -96 -193 -6 -25 -13 -52 -16 -61 -4 -14 -12 -15 -85 -2 -45 8
-89 12 -98 10 -9 -2 16 -9 54 -15 137 -24 122 -11 122 -111 l1 -88 -90 -13
c-49 -7 -91 -17 -95 -23 -3 -5 6 -7 23 -3 98 19 158 26 163 19 4 -4 13 -30 19
-58 48 -196 215 -367 427 -436 99 -33 261 -33 360 0 212 69 379 240 427 436 6
28 15 54 19 58 5 7 65 0 163 -19 17 -4 26 -2 23 3 -4 6 -46 16 -95 23 l-90 13
1 88 c0 100 -15 87 122 111 39 6 63 13 54 15 -9 2 -53 -2 -98 -10 -73 -13 -81
-12 -85 2 -3 9 -10 36 -16 61 -15 56 -52 131 -96 193 -19 26 -34 50 -34 55 0
21 -219 637 -227 635 -6 -2 -165 -271 -236 -400 -11 -20 -21 -7 -125 176 -133
233 -138 242 -146 221z m138 -232 c58 -103 106 -190 106 -193 0 -3 -17 -5 -38
-5 -99 0 -265 -69 -351 -146 -28 -25 -51 -42 -51 -38 0 4 46 140 102 301 80
232 104 291 113 281 7 -7 60 -97 119 -200z m475 -84 c56 -160 101 -294 101
-298 0 -4 -23 13 -51 38 -86 77 -252 146 -351 146 -21 0 -38 2 -38 5 0 6 188
337 217 383 8 13 16 22 18 20 2 -2 49 -134 104 -294z m-207 -143 c185 -48 323
-159 407 -328 32 -63 59 -158 49 -168 -4 -4 -508 -93 -535 -95 -2 0 -3 14 -3
30 l0 30 -65 0 -65 0 0 -30 c0 -16 -1 -30 -2 -30 -28 2 -532 91 -536 95 -10
10 17 105 49 168 130 263 422 399 701 328z m-495 -558 c128 -20 231 -39 229
-41 -4 -3 -464 -82 -483 -82 -10 0 -13 24 -13 86 0 77 2 85 18 80 9 -2 121
-22 249 -43z m963 -38 c0 -54 -4 -85 -11 -85 -13 0 -423 68 -464 77 -22 5 38
18 215 49 135 23 248 42 253 43 4 1 7 -37 7 -84z m-564 23 c-8 -41 -32 -78
-51 -78 -19 0 -43 37 -51 78 l-6 32 57 0 58 0 -7 -32z m-66 -88 c16 -9 25 -6
45 14 14 14 25 29 25 34 0 5 124 -12 275 -37 315 -52 294 -39 252 -154 -35
-97 -73 -155 -151 -232 -120 -120 -261 -178 -431 -178 -170 0 -311 58 -431
178 -78 77 -116 135 -151 232 -42 115 -63 102 250 154 l272 45 13 -23 c7 -12
21 -27 32 -33z"/>
<path d="M646 1179 c-35 -28 -35 -70 0 -98 33 -26 55 -26 85 -3 45 37 16 122
-41 122 -9 0 -29 -9 -44 -21z"/>
<path d="M1019 1182 c-31 -26 -31 -78 0 -104 30 -23 52 -23 85 3 35 28 35 70
0 98 -33 26 -55 26 -85 3z"/>
<path d="M440 754 c0 -5 28 -38 63 -72 l63 -62 310 0 310 0 64 65 c35 35 62
67 59 69 -3 3 -32 -21 -64 -54 l-59 -60 -310 0 -310 0 -63 62 c-35 34 -63 58
-63 52z"/>
<path d="M781 214 c-25 -31 -27 -74 -6 -114 25 -49 98 -50 124 -1 16 29 0 33
-21 6 -24 -30 -51 -32 -78 -5 -26 26 -26 81 -2 103 23 21 71 22 78 2 7 -16 24
-21 24 -6 0 20 -33 41 -65 41 -24 0 -39 -7 -54 -26z"/>
<path d="M1063 205 c-6 -14 -7 -27 -2 -31 5 -3 9 -27 9 -55 0 -42 3 -49 20
-49 11 0 20 5 20 10 0 6 -4 10 -10 10 -15 0 -12 87 3 93 10 4 10 6 0 6 -7 1
-13 10 -13 21 0 27 -13 25 -27 -5z"/>
<path d="M945 180 c-16 -17 -16 -20 -2 -20 9 0 19 5 22 10 9 15 42 12 48 -5 4
-10 -4 -16 -28 -21 -39 -7 -58 -25 -53 -51 3 -15 14 -18 57 -19 l53 -1 -4 55
c-3 31 -11 58 -19 63 -23 15 -55 10 -74 -11z m65 -70 c-6 -12 -21 -20 -35 -20
-32 0 -33 27 -2 33 46 9 48 8 37 -13z"/>
</g>
</svg>
